<!DOCTYPE svg PUBLIC "-//W3C//DTD SVG 1.1//EN" "http://www.w3.org/Graphics/SVG/1.1/DTD/svg11.dtd" [
	<!ENTITY ns_flows "http://ns.adobe.com/Flows/1.0/">
]><svg xmlns="http://www.w3.org/2000/svg" width="154" height="60" viewBox="-3.912 -1.177 154 60" overflow="visible" enable-background="new -3.912 -1.177 154 60"><path fill="#fff" d="M8.838 9.058h-8.838v-8.354h25.941v8.354h-8.793v46.738h-8.31zM43.892 1.173l7.693 3.138-20.809 51.011-7.693-3.138zM71.252 13.983c0-1.438-.432-2.596-1.297-3.475-.865-.88-2.014-1.319-3.451-1.319h-5.01v17.63h5.01c1.322 0 2.441-.469 3.365-1.406.924-.937 1.383-2.067 1.383-3.386v-8.044zm-4.969-13.279c4.047 0 7.271 1.272 9.674 3.826 2.227 2.431 3.342 5.537 3.342 9.32v8.002c0 3.633-1.266 6.742-3.803 9.321-2.535 2.578-5.607 3.868-9.213 3.868h-4.789v20.754h-8.312v-55.091h13.101zM110.822 42.077c.061 3.84-.939 7.123-2.986 9.848-1.35 1.849-3.256 3.154-5.721 3.915-1.318.409-2.855.614-4.615.614-3.252 0-5.949-.806-8.088-2.418-1.791-1.318-3.203-3.115-4.244-5.385-1.041-2.271-1.65-4.873-1.824-7.805l7.916-.572c.352 3.212 1.201 5.539 2.547 6.982.998 1.091 2.143 1.605 3.432 1.548 1.816-.059 3.268-.953 4.352-2.686.559-.851.834-2.068.834-3.651 0-2.289-1.039-4.562-3.121-6.821l-7.387-6.998c-2.758-2.668-4.703-5.061-5.848-7.173-1.23-2.377-1.846-4.957-1.846-7.746 0-5.017 1.686-8.816 5.055-11.397 2.081-1.554 4.661-2.332 7.74-2.332 2.959 0 5.496.659 7.605 1.977 1.643 1.027 2.969 2.464 3.98 4.312 1.01 1.846 1.619 3.972 1.824 6.375l-7.957 1.451c-.234-2.258-.881-4.016-1.936-5.276-.764-.908-1.861-1.363-3.297-1.363-1.523 0-2.682.674-3.475 2.021-.645 1.085-.967 2.434-.967 4.046 0 2.521 1.084 5.085 3.256 7.695.816.996 2.051 2.169 3.691 3.516 1.934 1.614 3.209 2.74 3.824 3.387 2.051 2.052 3.635 4.073 4.75 6.065.527.939.951 1.805 1.271 2.596.796 1.964 1.206 3.721 1.235 5.275"/><path fill="#fff" d="M124.564 32.711l-11.121-32.052h9.145l6.156 19.786 6.111-19.786h9.192l-11.17 32.052v23.085h-8.313z"/><path stroke="#231F20" stroke-miterlimit="8" fill="none" d="M10.967 10.248h-8.834v-8.352h25.939v8.352h-8.797v46.739h-8.308zM46.025 2.368l7.696 3.141-20.819 51.01-7.696-3.141zM73.385 15.172c0-1.434-.436-2.593-1.299-3.473-.863-.878-2.016-1.319-3.451-1.319h-5.012v17.634h5.012c1.32 0 2.439-.471 3.363-1.408.924-.939 1.387-2.066 1.387-3.384v-8.05zm-4.971-13.276c4.047 0 7.27 1.275 9.674 3.827 2.227 2.432 3.344 5.537 3.344 9.319v8.002c0 3.635-1.271 6.742-3.805 9.32-2.535 2.58-5.605 3.869-9.213 3.869h-4.791v20.754h-8.311v-55.091h13.102zM112.955 43.27c.057 3.84-.939 7.122-2.99 9.849-1.348 1.846-3.256 3.152-5.717 3.913-1.318.41-2.857.615-4.615.615-3.256 0-5.951-.807-8.092-2.418-1.787-1.32-3.203-3.116-4.244-5.386s-1.646-4.873-1.824-7.805l7.916-.572c.352 3.213 1.199 5.54 2.549 6.984.996 1.09 2.139 1.605 3.432 1.546 1.816-.059 3.266-.953 4.352-2.684.555-.852.836-2.069.836-3.652 0-2.289-1.041-4.563-3.123-6.822-1.641-1.555-4.104-3.887-7.385-6.997-2.756-2.67-4.707-5.062-5.852-7.175-1.229-2.374-1.844-4.956-1.844-7.744 0-5.017 1.684-8.815 5.057-11.397 2.078-1.555 4.658-2.333 7.736-2.333 2.963 0 5.496.659 7.609 1.979 1.637 1.025 2.969 2.461 3.977 4.307 1.012 1.848 1.621 3.972 1.824 6.376l-7.957 1.453c-.234-2.259-.879-4.018-1.934-5.277-.764-.908-1.861-1.362-3.297-1.362-1.525 0-2.686.673-3.477 2.022-.643 1.084-.967 2.433-.967 4.045 0 2.52 1.084 5.084 3.254 7.694.82.996 2.055 2.169 3.695 3.517 1.934 1.613 3.207 2.741 3.822 3.386 2.053 2.051 3.637 4.075 4.75 6.066.529.94.951 1.804 1.275 2.595.793 1.965 1.203 3.725 1.234 5.277zM126.697 33.903l-11.121-32.052h9.143l6.156 19.785 6.109-19.785h9.192l-11.166 32.052v23.084h-8.313z"/></svg>